<svg width="800" height="600" xmlns="http://www.w3.org/2000/svg"><circle cx="245.09954224340618" cy="389.7422518581152" r="27.73932110518217" fill="#f00" stroke="#000" strokeWidth="2"></circle><circle cx="604.7567336354405" cy="202.45776046067476" r="45.12315017171204" fill="#f00" stroke="#000" strokeWidth="2"></circle><circle cx="210.43897648341954" cy="315.6657639890909" r="11.68953938409686" fill="#f00" stroke="#000" strokeWidth="2"></circle><circle cx="344.72252931445837" cy="113.37221888825297" r="11.17013443261385" fill="#f00" stroke="#000" strokeWidth="2"></circle><circle cx="107.74070434272289" cy="409.8268210887909" r="30.68475124426186" fill="#f00" stroke="#000" strokeWidth="2"></circle><circle cx="531.9294817745686" cy="366.28588074818254" r="12.78779429383576" fill="#f00" stroke="#000" strokeWidth="2"></circle><circle cx="313.18161990493536" cy="397.2005680203438" r="31.30898811854422" fill="#f00" stroke="#000" strokeWidth="2"></circle><circle cx="468.47901986911893" cy="482.1897520683706" r="22.710694009438157" fill="#f00" stroke="#000" strokeWidth="2"></circle><circle cx="653.5930586047471" cy="228.13337808474898" r="36.21065601706505" fill="#f00" stroke="#000" strokeWidth="2"></circle><circle cx="587.8695085179061" cy="346.2195676751435" r="34.852105313912034" fill="#f00" stroke="#000" strokeWidth="2"></circle><circle cx="233.62764292396605" cy="437.4144857749343" r="12.140349000692368" fill="#f00" stroke="#000" strokeWidth="2"></circle><circle cx="496.5135361067951" cy="433.2068054936826" r="39.18695565313101" fill="#f00" stroke="#000" strokeWidth="2"></circle><circle cx="486.59940091893077" cy="414.778514765203" r="13.708817595615983" fill="#f00" stroke="#000" strokeWidth="2"></circle><circle cx="580.155774904415" cy="105.92322004958987" r="23.487477656453848" fill="#f00" stroke="#000" strokeWidth="2"></circle><circle cx="157.96118886210024" cy="371.42762802541256" r="17.86097920499742" fill="#f00" stroke="#000" strokeWidth="2"></circle><circle cx="206.87115415930748" cy="220.34167563542724" r="12.656500497832894" fill="#f00" stroke="#000" strokeWidth="2"></circle><circle cx="542.6611760631204" cy="292.1096686273813" r="29.8485704138875" fill="#f00" stroke="#000" strokeWidth="2"></circle><circle cx="209.75659973919392" cy="125.8590173907578" r="13.655241057276726" fill="#f00" stroke="#000" strokeWidth="2"></circle><circle cx="547.6307927630842" cy="192.70202899351716" r="39.423483880236745" fill="#f00" stroke="#000" strokeWidth="2"></circle><circle cx="451.3780861161649" cy="417.87735540419817" r="21.477363733574748" fill="#f00" stroke="#000" strokeWidth="2"></circle><circle cx="213.19344602525234" cy="295.86801128461957" r="18.35313186980784" fill="#f00" stroke="#000" strokeWidth="2"></circle><circle cx="257.5528922956437" cy="483.1323171965778" r="41.37746188789606" fill="#f00" stroke="#000" strokeWidth="2"></circle><circle cx="132.07406005822122" cy="286.95724569261074" r="43.393071629107" fill="#f00" stroke="#000" strokeWidth="2"></circle><circle cx="575.9057046379894" cy="468.1998540647328" r="48.020397163927555" fill="#f00" stroke="#000" strokeWidth="2"></circle><circle cx="434.54377274028957" cy="171.68935742229223" r="39.12740023806691" fill="#f00" stroke="#000" strokeWidth="2"></circle><circle cx="534.131789393723" cy="117.12167989462614" r="21.876459820196033" fill="#f00" stroke="#000" strokeWidth="2"></circle><circle cx="354.94207688607275" cy="160.35698354244232" r="32.30255790986121" fill="#f00" stroke="#000" strokeWidth="2"></circle><circle cx="298.44112172722816" cy="108.87683797627687" r="22.254593409597874" fill="#f00" stroke="#000" strokeWidth="2"></circle><circle cx="475.2911727875471" cy="280.7839666493237" r="14.078217539936304" fill="#f00" stroke="#000" strokeWidth="2"></circle><circle cx="316.4575583767146" cy="295.95191990956664" r="46.303141536191106" fill="#f00" stroke="#000" strokeWidth="2"></circle><circle cx="176.75517066381872" cy="294.78985583409667" r="17.693958282470703" fill="#f00" stroke="#000" strokeWidth="2"></circle><circle cx="388.5723208077252" cy="308.4058566018939" r="43.10856267809868" fill="#f00" stroke="#000" strokeWidth="2"></circle><circle cx="270.8054431248456" cy="330.4914306849241" r="44.14043905213475" fill="#f00" stroke="#000" strokeWidth="2"></circle><circle cx="623.1332467868924" cy="248.1631588190794" r="19.718734733760357" fill="#f00" stroke="#000" strokeWidth="2"></circle><circle cx="144.58268429152668" cy="343.87577939778566" r="48.00751706585288" fill="#f00" stroke="#000" strokeWidth="2"></circle><circle cx="601.8715723417699" cy="415.65528828650713" r="38.31460545770824" fill="#f00" stroke="#000" strokeWidth="2"></circle><circle cx="284.7045514732599" cy="429.7395217232406" r="46.138113187626004" fill="#f00" stroke="#000" strokeWidth="2"></circle><circle cx="235.37434129975736" cy="259.93146067485213" r="42.00077320449054" fill="#f00" stroke="#000" strokeWidth="2"></circle><circle cx="565.1902621611953" cy="200.50132414326072" r="49.45958839729428" fill="#f00" stroke="#000" strokeWidth="2"></circle><circle cx="329.00638417340815" cy="190.0202221237123" r="17.40483023226261" fill="#f00" stroke="#000" strokeWidth="2"></circle><circle cx="362.3256726190448" cy="165.69763170555234" r="48.64171577617526" fill="#f00" stroke="#000" strokeWidth="2"></circle><circle cx="680.4650710895658" cy="117.55264513194561" r="25.58872379362583" fill="#f00" stroke="#000" strokeWidth="2"></circle><circle cx="167.07243202254176" cy="365.7527002505958" r="27.22177908755839" fill="#f00" stroke="#000" strokeWidth="2"></circle><circle cx="659.9784800317138" cy="101.10477320849895" r="26.099842069670558" fill="#f00" stroke="#000" strokeWidth="2"></circle><circle cx="107.97250056639314" cy="360.9491259790957" r="36.2724672164768" fill="#f00" stroke="#000" strokeWidth="2"></circle><circle cx="602.1916341967881" cy="322.7756954729557" r="42.24491650238633" fill="#f00" stroke="#000" strokeWidth="2"></circle><circle cx="129.79808961972594" cy="489.4766525365412" r="27.890355121344328" fill="#f00" stroke="#000" strokeWidth="2"></circle><circle cx="415.7137486152351" cy="173.65498607978225" r="43.228446897119284" fill="#f00" stroke="#000" strokeWidth="2"></circle><circle cx="685.3459406178445" cy="435.57053338736296" r="32.96256486326456" fill="#f00" stroke="#000" strokeWidth="2"></circle><circle cx="549.8264119029045" cy="303.16914059221745" r="44.55107634887099" fill="#f00" stroke="#000" strokeWidth="2"></circle></svg>